<?xml version="1.0" encoding="utf-8"?>
<!-- Generator: Adobe Illustrator 16.0.0, SVG Export Plug-In . SVG Version: 6.00 Build 0)  -->
<!DOCTYPE svg PUBLIC "-//W3C//DTD SVG 1.1//EN" "http://www.w3.org/Graphics/SVG/1.1/DTD/svg11.dtd">
<svg version="1.1"
	 id="svg5775" xmlns:dc="http://purl.org/dc/elements/1.1/" xmlns:cc="http://creativecommons.org/ns#" xmlns:rdf="http://www.w3.org/1999/02/22-rdf-syntax-ns#" xmlns:svg="http://www.w3.org/2000/svg" xmlns:sodipodi="http://sodipodi.sourceforge.net/DTD/sodipodi-0.dtd" xmlns:inkscape="http://www.inkscape.org/namespaces/inkscape" inkscape:export-ydpi="96" inkscape:export-xdpi="96" inkscape:export-filename="C:\Users\user\skola\TVY\ref\casovy-diagram-dynamicke-pameti.png" sodipodi:docname="casovy-diagram-dynamicke-pameti.svg" inkscape:version="0.92.3 (2405546, 2018-03-11)"
	 xmlns="http://www.w3.org/2000/svg" xmlns:xlink="http://www.w3.org/1999/xlink" x="0px" y="0px" width="353.523px"
	 height="344.539px" viewBox="0 0 353.523 344.539" enable-background="new 0 0 353.523 344.539" xml:space="preserve">
<sodipodi:namedview  fit-margin-left="5" fit-margin-top="5" showgrid="false" inkscape:cy="220.51858" inkscape:cx="141.58348" inkscape:zoom="0.7" borderopacity="1.0" bordercolor="#666666" pagecolor="#ffffff" id="base" inkscape:window-maximized="1" inkscape:window-y="-8" inkscape:window-x="-8" inkscape:window-height="837" inkscape:window-width="1600" fit-margin-bottom="5" fit-margin-right="5" inkscape:pageshadow="2" inkscape:current-layer="layer1" inkscape:document-units="mm" inkscape:pageopacity="0.0">
	</sodipodi:namedview>
<g id="layer1" transform="translate(-28.900404,-6.630757)" inkscape:label="Layer 1" inkscape:groupmode="layer">
	<text transform="matrix(1 0 0 1 42.9143 61.8322)" font-family="'HelveticaCE-Regular'" font-size="20.4231">CS</text>
	<text transform="matrix(1 0 0 1 42.9143 112.8907)" font-family="'HelveticaCE-Regular'" font-size="20.4231">AB</text>
	<text transform="matrix(1 0 0 1 42.9143 163.9474)" font-family="'HelveticaCE-Regular'" font-size="20.4231">RAS</text>
	<text transform="matrix(1 0 0 1 42.9143 215.006)" font-family="'HelveticaCE-Regular'" font-size="20.4231">CAS</text>
	<text transform="matrix(1 0 0 1 42.9143 266.0646)" font-family="'HelveticaCE-Regular'" font-size="20.4231">RW</text>
	<text transform="matrix(1 0 0 1 42.9143 317.1212)" font-family="'HelveticaCE-Regular'" font-size="20.4231">DB</text>
	<path id="path5805" inkscape:connector-curvature="0" fill="none" stroke="#000000" stroke-width="2" d="M44.868,38.553h23.983"/>
	
		<path id="path5807" inkscape:connector-curvature="0" sodipodi:nodetypes="cccc" fill="none" stroke="#000000" stroke-width="2" d="
		M92.834,37.392h30.173v24.757h244.47"/>
	<path id="path5811" inkscape:connector-curvature="0" fill="none" stroke="#000000" stroke-width="2" d="M91.499,103.955h31.182
		l10.416-18.04h36.63l9.764,16.91l-9.463,16.39h-38.047l-9.169-15.882"/>
	
		<path id="path5811-1" inkscape:connector-curvature="0" sodipodi:nodetypes="ccccccc" fill="none" stroke="#000000" stroke-width="2" d="
		M179.36,103.447l10.415-18.04h36.631l9.763,16.91l-9.462,16.39h-38.047l-9.169-15.882"/>
	
		<path id="path5811-1-5" inkscape:connector-curvature="0" sodipodi:nodetypes="ccccccc" fill="none" stroke="#000000" stroke-width="2" d="
		M236.168,102.318l10.416-18.041h36.631l9.763,16.91l-9.463,16.39h-38.047l-9.169-15.882"/>
	
		<path id="path5811-1-6" inkscape:connector-curvature="0" sodipodi:nodetypes="ccccccc" fill="none" stroke="#000000" stroke-width="2" d="
		M292.847,101.809l10.416-18.04h36.63l9.763,16.91l-9.462,16.39h-38.047l-9.169-15.882"/>
	<path id="path5849" inkscape:connector-curvature="0" fill="none" stroke="#000000" stroke-width="2" d="M91.674,162.722h36.361
		v-20.114h38.682v20.889h78.912v-21.662h37.908v22.049h84.714"/>
	<path id="path5851" inkscape:connector-curvature="0" sodipodi:nodetypes="cc" fill="none" stroke="#000000" stroke-width="2" d="
		M349.656,100.679h16.735"/>
	
		<path id="path5857" inkscape:connector-curvature="0" sodipodi:nodetypes="cccccccccc" fill="none" stroke="#000000" stroke-width="2" d="
		M91.499,213.911h92.998v-23.522h40.481v24.617h77.134v-25.164h40.481v25.711h25.164"/>
	
		<path id="path5859" inkscape:connector-curvature="0" sodipodi:nodetypes="cccccc" fill="none" stroke="#000000" stroke-width="2" d="
		M91.674,265.23h190.703v-22.049h26.304v22.436h58.736"/>
	
		<path id="path5811-1-6-3" inkscape:connector-curvature="0" sodipodi:nodetypes="ccccccc" fill="none" stroke="#000000" stroke-width="2" d="
		M297.059,315.737l10.415-18.04h36.631l9.763,16.91l-9.463,16.39h-38.046l-9.17-15.882"/>
	<path id="path5876" inkscape:connector-curvature="0" fill="none" stroke="#000000" stroke-width="2" d="M92.046,315.115h205.143"
		/>
	<path id="path5878" inkscape:connector-curvature="0" sodipodi:nodetypes="cc" fill="none" stroke="#000000" stroke-width="2" d="
		M353.867,314.608h13.964"/>
	<text transform="matrix(1 0 0 1 134.8674 106.7736)" font-family="'HelveticaCE-Regular'" font-size="10">ROW 1</text>
	<text transform="matrix(1 0 0 1 192.9729 106.5822)" font-family="'HelveticaCE-Regular'" font-size="10">COL 1</text>
	<text transform="matrix(1 0 0 1 247.1467 104.6876)" font-family="'HelveticaCE-Regular'" font-size="10">ROW 2</text>
	<text transform="matrix(1 0 0 1 307.4124 104.6876)" font-family="'HelveticaCE-Regular'" font-size="10">COL 2</text>
	<text transform="matrix(1 0 0 1 314.1135 318.1173)" font-family="'HelveticaCE-Regular'" font-size="10">DATA</text>
</g>
</svg>
