<?xml version="1.0" encoding="utf-8"?>
<!-- Generator: Adobe Illustrator 16.0.0, SVG Export Plug-In . SVG Version: 6.00 Build 0)  -->
<!DOCTYPE svg PUBLIC "-//W3C//DTD SVG 1.1//EN" "http://www.w3.org/Graphics/SVG/1.1/DTD/svg11.dtd">
<svg version="1.1"
	 id="svg8" xmlns:dc="http://purl.org/dc/elements/1.1/" xmlns:cc="http://creativecommons.org/ns#" xmlns:rdf="http://www.w3.org/1999/02/22-rdf-syntax-ns#" xmlns:svg="http://www.w3.org/2000/svg" xmlns:sodipodi="http://sodipodi.sourceforge.net/DTD/sodipodi-0.dtd" xmlns:inkscape="http://www.inkscape.org/namespaces/inkscape" sodipodi:docname="logicka-adresa.svg" inkscape:version="0.92.3 (2405546, 2018-03-11)" inkscape:export-filename="C:\Users\user\skola\TVY\ref\logicka-adresa.png" inkscape:export-ydpi="96" inkscape:export-xdpi="96"
	 xmlns="http://www.w3.org/2000/svg" xmlns:xlink="http://www.w3.org/1999/xlink" x="0px" y="0px" width="337.133px"
	 height="193.123px" viewBox="0 0 337.133 193.123" enable-background="new 0 0 337.133 193.123" xml:space="preserve">
<sodipodi:namedview  fit-margin-left="5" fit-margin-top="5" showgrid="false" inkscape:cy="95.505565" inkscape:cx="247.35961" inkscape:zoom="0.98994949" borderopacity="1.0" bordercolor="#666666" pagecolor="#ffffff" id="base" inkscape:window-maximized="1" inkscape:window-y="-8" inkscape:window-x="-8" inkscape:window-height="837" inkscape:window-width="1600" fit-margin-bottom="5" inkscape:current-layer="layer1" inkscape:document-units="mm" inkscape:pageopacity="0.0" fit-margin-right="5" inkscape:pageshadow="2">
	</sodipodi:namedview>
<g id="layer1" transform="translate(-28.318393,-0.45377065)" inkscape:groupmode="layer" inkscape:label="Layer 1">
	<text transform="matrix(1 0 0 1 49.8304 63.2001)" font-family="'HelveticaCE-Regular'" font-size="10">selektor</text>
	<text transform="matrix(1 0 0 1 110.387 25.7548)" font-family="'HelveticaCE-Regular'" font-size="12">LOGICKÁ ADRESA</text>
	<text transform="matrix(1 0 0 1 186.3362 63.3173)" font-family="'HelveticaCE-Regular'" font-size="10">efektivní adresa</text>
	<text transform="matrix(1 0 0 1 70.9495 86.6591)" font-family="'HelveticaCE-Regular'" font-size="10">deskriptorová</text>
	<text transform="matrix(1 0 0 1 70.9495 99.1591)" font-family="'HelveticaCE-Regular'" font-size="10">tabulka (DT)</text>
	<text transform="matrix(1 0 0 1 153.6194 147.8212)" font-family="'HelveticaCE-Regular'" font-size="10">báze +</text>
	<text transform="matrix(1 0 0 1 153.6194 160.3212)" font-family="'HelveticaCE-Regular'" font-size="10">efektivní</text>
	<text transform="matrix(1 0 0 1 153.6194 172.8212)" font-family="'HelveticaCE-Regular'" font-size="10">adresa</text>
	<text transform="matrix(1 0 0 1 246.4378 147.3075)" font-family="'HelveticaCE-Regular'" font-size="10">lineární</text>
	<text transform="matrix(1 0 0 1 246.4378 159.8075)" font-family="'HelveticaCE-Regular'" font-size="10">adresa</text>
	<text transform="matrix(1 0 0 1 301.885 81.9501)" font-family="'HelveticaCE-Regular'" font-size="10">virtuální</text>
	<text transform="matrix(1 0 0 1 301.885 94.4501)" font-family="'HelveticaCE-Regular'" font-size="10">prostor</text>
	<rect id="rect868" x="42.867" y="50.879" fill="none" stroke="#000000" stroke-linejoin="round" width="53.571" height="18.75"/>
	<rect id="rect870" x="71.509" y="105.1" fill="none" stroke="#000000" stroke-linejoin="round" width="54.643" height="73.928"/>
	<path id="path872" inkscape:connector-curvature="0" fill="none" stroke="#000000" d="M71.537,132.877h54.595"/>
	<path id="path874" inkscape:connector-curvature="0" fill="none" stroke="#000000" d="M71.537,139.317h54.358"/>
	<path id="path888" inkscape:connector-curvature="0" fill="none" stroke="#000000" d="M48.09,69.495v66.83h23.304"/>
	
		<rect id="rect868-3" x="181.67" y="50.879" fill="none" stroke="#000000" stroke-linejoin="round" width="90.099" height="18.532"/>
	<circle id="path915" fill="none" stroke="#000000" stroke-linejoin="round" cx="225.881" cy="136.189" r="6.819"/>
	<path id="path917" inkscape:connector-curvature="0" fill="none" stroke="#000000" d="M225.786,131.454v9.375"/>
	<path id="path919" inkscape:connector-curvature="0" fill="none" stroke="#000000" d="M221.241,136h9.092"/>
	<path id="path921" inkscape:connector-curvature="0" fill="none" stroke="#000000" d="M126.322,136.144h92.666"/>
	<path id="path923" inkscape:connector-curvature="0" fill="none" stroke="#000000" d="M225.806,129.089V69.427"/>
	
		<rect id="rect870-6" x="296.26" y="100.164" fill="none" stroke="#000000" stroke-linejoin="round" width="54.643" height="73.929"/>
	<path id="path940" inkscape:connector-curvature="0" fill="none" stroke="#000000" d="M232.814,135.908h63.313"/>
</g>
</svg>
