<?xml version="1.0" encoding="utf-8"?>
<!-- Generator: Adobe Illustrator 16.0.0, SVG Export Plug-In . SVG Version: 6.00 Build 0)  -->
<!DOCTYPE svg PUBLIC "-//W3C//DTD SVG 1.1//EN" "http://www.w3.org/Graphics/SVG/1.1/DTD/svg11.dtd">
<svg version="1.1"
	 id="svg1078" xmlns:dc="http://purl.org/dc/elements/1.1/" xmlns:cc="http://creativecommons.org/ns#" xmlns:rdf="http://www.w3.org/1999/02/22-rdf-syntax-ns#" xmlns:svg="http://www.w3.org/2000/svg" xmlns:sodipodi="http://sodipodi.sourceforge.net/DTD/sodipodi-0.dtd" xmlns:inkscape="http://www.inkscape.org/namespaces/inkscape" sodipodi:docname="mody.svg" inkscape:version="0.92.3 (2405546, 2018-03-11)"
	 xmlns="http://www.w3.org/2000/svg" xmlns:xlink="http://www.w3.org/1999/xlink" x="0px" y="0px" width="388.395px"
	 height="273.617px" viewBox="0 0 388.395 273.617" enable-background="new 0 0 388.395 273.617" xml:space="preserve">
<sodipodi:namedview  fit-margin-left="5" fit-margin-top="5" showgrid="false" inkscape:cy="216.84686" inkscape:cx="241.44569" inkscape:zoom="0.98994949" borderopacity="1.0" bordercolor="#666666" pagecolor="#ffffff" id="base" inkscape:window-maximized="1" inkscape:window-y="-8" inkscape:window-x="-8" inkscape:window-height="837" inkscape:window-width="1600" fit-margin-bottom="5" inkscape:current-layer="layer1" inkscape:document-units="mm" inkscape:pageopacity="0.0" fit-margin-right="5" inkscape:pageshadow="2">
	</sodipodi:namedview>
<g id="layer1" transform="translate(-15.614523,-24.765246)" inkscape:groupmode="layer" inkscape:label="Layer 1">
	<text transform="matrix(1 0 0 1 88.7827 97.9327)" font-family="'HelveticaCE-Regular'" font-size="10">64 bitový mód</text>
	<text transform="matrix(1 0 0 1 208.4859 97.9327)" font-family="'HelveticaCE-Regular'" font-size="10">compatibility mód</text>
	<text transform="matrix(1 0 0 1 162.271 182.0284)" font-family="'HelveticaCE-Regular'" font-size="10">protected mód</text>
	<text transform="matrix(1 0 0 1 304.3238 181.2706)" font-family="'HelveticaCE-Regular'" font-size="10">virtuální mód</text>
	<text transform="matrix(1 0 0 1 189.5464 250.214)" font-family="'HelveticaCE-Regular'" font-size="10">real mód</text>
	<text transform="matrix(1 0 0 1 53.1753 235.8195)" font-family="'HelveticaCE-Regular'" font-size="10">system</text>
	<text transform="matrix(1 0 0 1 53.1753 248.3195)" font-family="'HelveticaCE-Regular'" font-size="10">management</text>
	<text transform="matrix(1 0 0 1 53.1753 260.8195)" font-family="'HelveticaCE-Regular'" font-size="10">mód</text>
	<text transform="matrix(1 0 0 1 163.7867 60.8097)" font-family="'HelveticaCE-Regular'" font-size="10">long mód</text>
	<ellipse id="path1655" fill="none" stroke="#000000" stroke-linejoin="round" cx="127.043" cy="94.146" rx="52.654" ry="18.183"/>
	<ellipse id="path1657" fill="none" stroke="#000000" stroke-linejoin="round" cx="253.943" cy="94.146" rx="61.366" ry="17.425"/>
	<ellipse id="path1659" fill="none" stroke="#000000" stroke-linejoin="round" cx="192.198" cy="89.6" rx="141.329" ry="50.037"/>
	<ellipse id="path1665" fill="none" stroke="#000000" stroke-linejoin="round" cx="200.531" cy="178.62" rx="51.897" ry="20.077"/>
	<ellipse id="path1667" fill="none" stroke="#000000" stroke-linejoin="round" cx="336.902" cy="177.483" rx="52.275" ry="21.213"/>
	<ellipse id="path1669" fill="none" stroke="#000000" stroke-linejoin="round" cx="212.653" cy="246.426" rx="37.502" ry="17.425"/>
	<ellipse id="path1671" fill="none" stroke="#000000" stroke-linejoin="round" cx="83.101" cy="245.669" rx="52.654" ry="37.881"/>
	<path id="path1691" inkscape:connector-curvature="0" fill="none" stroke="#000000" d="M164.544,80.887
		c0,0,19.319-13.637,44.699,1.137"/>
	<path id="path1693" inkscape:connector-curvature="0" fill="none" stroke="#000000" d="M169.09,105.51
		c0,0,17.046,19.319,36.365-0.757"/>
	<path id="path1695" inkscape:connector-curvature="0" fill="none" stroke="#000000" d="M207.737,74.177l1.507,7.847l-9.274,0.591"
		/>
	<path id="path1697" sodipodi:nodetypes="ccc" inkscape:connector-curvature="0" fill="none" stroke="#000000" d="M176.933,106.052
		l-7.843-0.542l0.075,6.847"/>
	<path id="path1699" inkscape:connector-curvature="0" fill="none" stroke="#000000" d="M199.567,158.151l22.5-49.286l0.402,5.625"
		/>
	<path id="path1703" inkscape:connector-curvature="0" fill="none" stroke="#000000" d="M222.067,108.865l-5.022,2.88"/>
	<path id="path1705" inkscape:connector-curvature="0" fill="none" stroke="#000000" d="M234.055,110.624l-19.129,48.298
		l-0.379-8.523"/>
	<path id="path1707" inkscape:connector-curvature="0" fill="none" stroke="#000000" d="M214.926,158.922l5.682-6.25"/>
	<path id="path1709" inkscape:connector-curvature="0" fill="none" stroke="#000000" d="M243.336,167.255
		c0,0,20.456-14.205,50.003-1.704"/>
	<path id="path1711" inkscape:connector-curvature="0" fill="none" stroke="#000000" d="M295.233,190.362
		c0,0-26.138,18.563-50.949-0.568"/>
	<path id="path1713" inkscape:connector-curvature="0" fill="none" stroke="#000000" d="M291.066,158.922l2.273,6.629l-8.523,1.704"
		/>
	<path id="path1715" inkscape:connector-curvature="0" fill="none" stroke="#000000" d="M252.049,189.226l-7.766,0.568l0.568,6.818"
		/>
	<path id="path1717" inkscape:connector-curvature="0" fill="none" stroke="#000000" stroke-dasharray="0.265,0.53" d="
		M135.376,245.29l39.396,0.379"/>
	<path id="path1719" inkscape:connector-curvature="0" fill="none" stroke="#000000" d="M168.333,238.282l6.439,7.387l-5.492,6.818"
		/>
	<path id="path1721" inkscape:connector-curvature="0" fill="none" stroke="#000000" stroke-dasharray="0.2646,0.5292" d="
		M316.067,196.802c0,0-23.106,37.502-65.912,49.625"/>
	<path id="path1725" inkscape:connector-curvature="0" fill="none" stroke="#000000" d="M261.33,250.025l-11.175-3.598l6.439-9.092"
		/>
	<path id="path1727" inkscape:connector-curvature="0" fill="none" stroke="#000000" stroke-dasharray="0.2646,0.5292" d="
		M264.928,110.813c0,0,16.289,69.322-21.592,125.006"/>
	<path id="path1729" inkscape:connector-curvature="0" fill="none" stroke="#000000" d="M243.526,226.538l-0.189,9.281l8.902-4.924"
		/>
	<text transform="matrix(1 0 0 1 288.7632 236.632)" font-family="'HelveticaCE-Regular'" font-size="10">reset</text>
	<text transform="matrix(1 0 0 1 146.3804 258.8214)" font-family="'HelveticaCE-Regular'" font-size="10">reset</text>
	<text transform="matrix(1 0 0 1 223.2554 220.7863)" font-family="'HelveticaCE-Regular'" font-size="10">reset</text>
</g>
</svg>
