<?xml version="1.0" encoding="utf-8"?>
<!-- Generator: Adobe Illustrator 16.0.0, SVG Export Plug-In . SVG Version: 6.00 Build 0)  -->
<!DOCTYPE svg PUBLIC "-//W3C//DTD SVG 1.1//EN" "http://www.w3.org/Graphics/SVG/1.1/DTD/svg11.dtd">
<svg version="1.1"
	 id="svg8" xmlns:dc="http://purl.org/dc/elements/1.1/" xmlns:cc="http://creativecommons.org/ns#" xmlns:rdf="http://www.w3.org/1999/02/22-rdf-syntax-ns#" xmlns:svg="http://www.w3.org/2000/svg" xmlns:sodipodi="http://sodipodi.sourceforge.net/DTD/sodipodi-0.dtd" xmlns:inkscape="http://www.inkscape.org/namespaces/inkscape" sodipodi:docname="strankovani-fyzicka-adresa.svg" inkscape:version="0.92.3 (2405546, 2018-03-11)"
	 xmlns="http://www.w3.org/2000/svg" xmlns:xlink="http://www.w3.org/1999/xlink" x="0px" y="0px" width="324.908px"
	 height="269.473px" viewBox="0 0 324.908 269.473" enable-background="new 0 0 324.908 269.473" xml:space="preserve">
<sodipodi:namedview  fit-margin-left="5" fit-margin-top="5" showgrid="false" inkscape:cy="226.69296" inkscape:cx="274.92969" inkscape:zoom="0.98994949" borderopacity="1.0" bordercolor="#666666" pagecolor="#ffffff" id="base" inkscape:window-maximized="1" inkscape:window-y="-8" inkscape:window-x="-8" inkscape:window-height="837" inkscape:window-width="1600" fit-margin-bottom="5" inkscape:current-layer="layer1-7" inkscape:document-units="mm" inkscape:pageopacity="0.0" fit-margin-right="5" inkscape:pageshadow="2">
	</sodipodi:namedview>
<g id="layer1" transform="translate(-31.685425,-10.428854)" inkscape:groupmode="layer" inkscape:label="Layer 1">
	<g id="layer1-7" transform="translate(17.639786,14.185392)" inkscape:label="Layer 1">
		<rect id="rect10" x="28.878" y="30.829" fill="none" stroke="#000000" width="177.843" height="35.996"/>
		<text transform="matrix(1 0 0 1 51.2588 21.5447)" font-family="'HelveticaCE-Regular'" font-size="12">LINEÁRNÍ ADRESA 32b</text>
		<text transform="matrix(1 0 0 1 38.6553 42.2498)" font-family="'HelveticaCE-Regular'" font-size="10">10b</text>
		<text transform="matrix(1 0 0 1 38.6553 52.4451)" font-family="'HelveticaCE-Regular'" font-size="10">stránkovací</text>
		<text transform="matrix(1 0 0 1 38.6553 62.6404)" enable-background="new    "><tspan x="0" y="0" font-family="'HelveticaCE-Regular'" font-size="10">adresá</tspan><tspan x="30.576" y="0" font-family="'MyriadPro-Regular'" font-size="10">ř</tspan></text>
		<path id="path4560" inkscape:connector-curvature="0" fill="none" stroke="#000000" d="M167.325,30.972v35.667"/>
		<path id="path4564" inkscape:connector-curvature="0" fill="none" stroke="#000000" d="M101.089,30.972v35.13"/>
		<text transform="matrix(1 0 0 1 173.9463 47.91)" font-family="'HelveticaCE-Regular'" font-size="10">12b</text>
		<text transform="matrix(1 0 0 1 173.9463 58.1053)" font-family="'HelveticaCE-Regular'" font-size="10">offset</text>
		<rect id="rect4616" x="55.124" y="147.531" fill="none" stroke="#000000" width="41.786" height="66.43"/>
		<path id="path4628" inkscape:connector-curvature="0" fill="none" stroke="#000000" d="M55.106,189.846h41.479"/>
		<path id="path4632" inkscape:connector-curvature="0" fill="none" stroke="#000000" d="M54.856,179.942h41.785"/>
		<path id="path4634" inkscape:connector-curvature="0" fill="none" stroke="#000000" d="M37.74,66.874v117.473h17.088"/>
		<circle id="path4638" fill="none" stroke="#000000" stroke-linejoin="round" cx="185.94" cy="184.732" r="7.197"/>
		<path id="path4640" inkscape:connector-curvature="0" fill="none" stroke="#000000" d="M181.017,184.732h9.28"/>
		<path id="path4642" inkscape:connector-curvature="0" fill="none" stroke="#000000" d="M185.94,180.092v8.986"/>
		<path id="path4666" inkscape:connector-curvature="0" fill="none" stroke="#000000" d="M185.605,178.103V67.396"/>
		<text transform="matrix(1 0 0 1 224.6435 188.2303)" font-family="'HelveticaCE-Regular'" font-size="10">fyzická adresa - 32b</text>
		<text transform="matrix(1 0 0 1 106.001 42.2166)" font-family="'HelveticaCE-Regular'" font-size="10">10b</text>
		<text transform="matrix(1 0 0 1 106.001 52.4119)" font-family="'HelveticaCE-Regular'" font-size="10">stránkovací</text>
		<text transform="matrix(1 0 0 1 106.001 62.6072)" font-family="'HelveticaCE-Regular'" font-size="10">tabulka</text>
		<path id="path979" inkscape:connector-curvature="0" fill="none" stroke="#000000" d="M193.371,184.865h27.085"/>
		<rect id="rect4616-3" x="122.089" y="147.531" fill="none" stroke="#000000" width="41.785" height="66.43"/>
		<path id="path4628-7" inkscape:connector-curvature="0" fill="none" stroke="#000000" d="M122.071,189.846h41.479"/>
		<path id="path4632-7" inkscape:connector-curvature="0" fill="none" stroke="#000000" d="M121.82,179.942h41.786"/>
		<path id="path1002" inkscape:connector-curvature="0" fill="none" stroke="#000000" d="M96.87,184.77h7.895v26.212h17.344"/>
		<path id="path1004" inkscape:connector-curvature="0" fill="none" stroke="#000000" d="M121.776,185.055h-8.522V66.867"/>
		<path id="path1006" inkscape:connector-curvature="0" fill="none" stroke="#000000" d="M164.014,184.676h14.395"/>
		<text transform="matrix(1 0 0 1 99.4072 222.4998)" font-family="'HelveticaCE-Regular'" font-size="10">20b</text>
		<text transform="matrix(1 0 0 1 165.3096 174.2635)" font-family="'HelveticaCE-Regular'" font-size="10">20b</text>
		<text transform="matrix(1 0 0 1 114.7685 84.6717)" enable-background="new    "><tspan x="0" y="0" font-family="'MyriadPro-Regular'" font-size="10">ř</tspan><tspan x="3.27" y="0" font-family="'HelveticaCE-Regular'" font-size="10">ádek ve</tspan></text>
		<text transform="matrix(1 0 0 1 114.7685 97.1717)" font-family="'HelveticaCE-Regular'" font-size="10">stánkovací</text>
		<text transform="matrix(1 0 0 1 114.7685 109.6717)" font-family="'HelveticaCE-Regular'" font-size="10">tabulce</text>
		<text transform="matrix(1 0 0 1 187.8779 87.701)" font-family="'HelveticaCE-Regular'" font-size="10">poloha dat</text>
		<text transform="matrix(1 0 0 1 187.8779 100.201)" font-family="'HelveticaCE-Regular'" font-size="10">ve stránce</text>
		<text transform="matrix(1 0 0 1 165.8349 202.1424)" font-family="'ArialMT'" font-size="10">číslo</text>
		<text transform="matrix(1 0 0 1 165.8349 214.6424)" font-family="'ArialMT'" font-size="10">stránky</text>
		<text transform="matrix(1 0 0 1 99.4072 236.9647)" font-family="'ArialMT'" font-size="10">počáteční</text>
		<text transform="matrix(1 0 0 1 99.4072 249.4647)" font-family="'ArialMT'" font-size="10">adresa stránky</text>
	</g>
</g>
</svg>
