<?xml version="1.0" encoding="utf-8"?>
<!-- Generator: Adobe Illustrator 16.0.0, SVG Export Plug-In . SVG Version: 6.00 Build 0)  -->
<!DOCTYPE svg PUBLIC "-//W3C//DTD SVG 1.1//EN" "http://www.w3.org/Graphics/SVG/1.1/DTD/svg11.dtd">
<svg version="1.1"
	 id="svg8" xmlns:dc="http://purl.org/dc/elements/1.1/" xmlns:cc="http://creativecommons.org/ns#" xmlns:rdf="http://www.w3.org/1999/02/22-rdf-syntax-ns#" xmlns:svg="http://www.w3.org/2000/svg" xmlns:sodipodi="http://sodipodi.sourceforge.net/DTD/sodipodi-0.dtd" xmlns:inkscape="http://www.inkscape.org/namespaces/inkscape" sodipodi:docname="vypocet-logicke-adresy.svg" inkscape:version="0.92.3 (2405546, 2018-03-11)"
	 xmlns="http://www.w3.org/2000/svg" xmlns:xlink="http://www.w3.org/1999/xlink" x="0px" y="0px" width="387.258px"
	 height="234.537px" viewBox="0 0 387.258 234.537" enable-background="new 0 0 387.258 234.537" xml:space="preserve">
<sodipodi:namedview  fit-margin-left="5" fit-margin-top="5" showgrid="false" inkscape:cy="141.63594" inkscape:cx="265.92448" inkscape:zoom="0.98994949" borderopacity="1.0" bordercolor="#666666" pagecolor="#ffffff" id="base" inkscape:window-maximized="1" inkscape:window-y="-8" inkscape:window-x="-8" inkscape:window-height="837" inkscape:window-width="1600" fit-margin-bottom="5" inkscape:current-layer="layer1" inkscape:document-units="mm" inkscape:pageopacity="0.0" fit-margin-right="5" inkscape:pageshadow="2">
	</sodipodi:namedview>
<g id="layer1" transform="translate(-14.010904,-0.36774525)" inkscape:groupmode="layer" inkscape:label="Layer 1">
	<rect id="rect10" x="28.843" y="38.144" fill="none" stroke="#000000" width="142.432" height="21.213"/>
	<text transform="matrix(1 0 0 1 62.6869 23.4478)" font-family="'HelveticaCE-Regular'" font-size="12">SELEKTOR</text>
	<text transform="matrix(1 0 0 1 40.9916 52.108)" font-family="'HelveticaCE-Regular'" font-size="10">index 13b</text>
	<path id="path4560" inkscape:connector-curvature="0" fill="none" stroke="#000000" d="M149.205,38.179v20.893"/>
	<path id="path4562" inkscape:connector-curvature="0" fill="none" stroke="#000000" d="M127.777,38.179v20.893"/>
	<path id="path4564" inkscape:connector-curvature="0" fill="none" stroke="#000000" d="M107.152,38.179v20.357"/>
	<text transform="matrix(1 0 0 1 110.3666 52.3755)" font-family="'HelveticaCE-Regular'" font-size="10">1b</text>
	<text transform="matrix(1 0 0 1 131.8588 52.3541)" font-family="'HelveticaCE-Regular'" font-size="10">1b</text>
	<text transform="matrix(1 0 0 1 153.5541 52.0865)" font-family="'HelveticaCE-Regular'" font-size="10">1b</text>
	<path id="path4596" sodipodi:nodetypes="cc" inkscape:connector-curvature="0" fill="none" stroke="#000000" d="M137.955,61.751
		l11.25,16.875"/>
	<path id="path4598" sodipodi:nodetypes="cc" inkscape:connector-curvature="0" fill="none" stroke="#000000" d="M159.652,61.483
		l-10.446,17.143"/>
	<text transform="matrix(1 0 0 1 134.474 89.0728)" font-family="'HelveticaCE-Regular'" font-size="10">práva</text>
	<path id="path4614" inkscape:connector-curvature="0" fill="none" stroke="#000000" d="M114.92,61.751L91.08,81.572"/>
	<rect id="rect4616" x="55.188" y="139.964" fill="none" stroke="#000000" width="41.785" height="66.43"/>
	<text transform="matrix(1 0 0 1 58.3901 192.5084)" font-family="'HelveticaCE-Regular'" font-size="8">segment</text>
	<text transform="matrix(1 0 0 1 58.3901 202.9732)" font-family="'HelveticaCE-Regular'" font-size="8">64kB</text>
	<path id="path4628" inkscape:connector-curvature="0" fill="none" stroke="#000000" d="M55.17,182.28H96.65"/>
	<path id="path4632" inkscape:connector-curvature="0" fill="none" stroke="#000000" d="M54.92,172.376h41.785"/>
	<path id="path4634" inkscape:connector-curvature="0" fill="none" stroke="#000000" d="M37.777,59.34v88.929H54.92"/>
	<circle id="path4638" fill="none" stroke="#000000" stroke-linejoin="round" cx="219.004" cy="177.166" r="7.197"/>
	<path id="path4640" inkscape:connector-curvature="0" fill="none" stroke="#000000" d="M214.079,177.166h9.281"/>
	<path id="path4642" inkscape:connector-curvature="0" fill="none" stroke="#000000" d="M219.004,172.525v8.986"/>
	<text transform="matrix(1 0 0 1 204.9877 52.1588)" font-family="'HelveticaCE-Regular'" font-size="10">offset</text>
	
		<rect id="rect4664" x="198.549" y="38.144" fill="none" stroke="#000000" stroke-linejoin="round" width="42.047" height="21.213"/>
	<path id="path4666" inkscape:connector-curvature="0" fill="none" stroke="#000000" d="M219.004,169.779V59.072"/>
	<path id="path4668" inkscape:connector-curvature="0" fill="none" stroke="#000000" d="M211.618,177.072H96.973"/>
	
		<rect id="rect4670" x="337.571" y="130.952" fill="none" stroke="#000000" stroke-linejoin="round" width="48.866" height="77.276"/>
	<text transform="matrix(1 0 0 1 340.2221 113.5259)" enable-background="new    "><tspan x="0" y="0" font-family="'HelveticaCE-Regular'" font-size="10">opera</tspan><tspan x="25.576" y="0" font-family="'MyriadPro-Regular'" font-size="10">č</tspan><tspan x="30.056" y="0" font-family="'HelveticaCE-Regular'" font-size="10">ní</tspan></text>
	<text transform="matrix(1 0 0 1 340.2221 126.0259)" enable-background="new    "><tspan x="0" y="0" font-family="'HelveticaCE-Regular'" font-size="10">pam</tspan><tspan x="19.453" y="0" font-family="'MyriadPro-Regular'" font-size="10">ě</tspan><tspan x="24.463" y="0" font-family="'HelveticaCE-Regular'" font-size="10">ť</tspan></text>
	<text transform="matrix(1 0 0 1 62.1518 92.8228)" enable-background="new    "><tspan x="0" y="0" font-family="'HelveticaCE-Regular'" font-size="10">p</tspan><tspan x="5.562" y="0" font-family="'MyriadPro-Regular'" font-size="10">ř</tspan><tspan x="8.832" y="0" font-family="'HelveticaCE-Regular'" font-size="10">epína</tspan><tspan x="33.856" y="0" font-family="'MyriadPro-Regular'" font-size="10">č</tspan><tspan x="38.336" y="0" font-family="'HelveticaCE-Regular'" font-size="10"> dat</tspan></text>
	<text transform="matrix(1 0 0 1 62.1518 105.3228)" font-family="'HelveticaCE-Regular'" font-size="10">GDT/LDT</text>
	<path id="path4704" inkscape:connector-curvature="0" fill="none" stroke="#000000" d="M337.593,137.666h48.482"/>
	<path id="path4704-1" inkscape:connector-curvature="0" fill="none" stroke="#000000" d="M337.727,144.63h48.482"/>
	<path id="path4704-8" inkscape:connector-curvature="0" fill="none" stroke="#000000" d="M337.995,151.327h48.482"/>
	<path id="path4704-2" inkscape:connector-curvature="0" fill="none" stroke="#000000" d="M337.191,158.291h48.482"/>
	<path id="path4704-28" inkscape:connector-curvature="0" fill="none" stroke="#000000" d="M337.191,164.719h48.482"/>
	<path id="path4704-4" inkscape:connector-curvature="0" fill="none" stroke="#000000" d="M337.995,171.148h48.482"/>
	<path id="path4704-0" inkscape:connector-curvature="0" fill="none" stroke="#000000" d="M337.459,177.577h48.481"/>
	<path id="path4704-9" inkscape:connector-curvature="0" fill="none" stroke="#000000" d="M337.384,183.322h48.482"/>
	<path id="path4704-3" inkscape:connector-curvature="0" fill="none" stroke="#000000" d="M337.763,189.098h48.481"/>
	<path id="path4704-82" inkscape:connector-curvature="0" fill="none" stroke="#000000" d="M337.479,194.876h48.481"/>
	<path id="path4704-93" inkscape:connector-curvature="0" fill="none" stroke="#000000" d="M337.479,201.126h48.481"/>
	<path id="path4777" inkscape:connector-curvature="0" fill="none" stroke="#000000" d="M226.549,177.332h111.021"/>
	<text transform="matrix(1 0 0 1 244.0268 171.5728)" font-family="'HelveticaCE-Regular'" font-size="10">lineární/fyzická</text>
	<path id="path4783" inkscape:connector-curvature="0" fill="none" stroke="#000000" d="M282.598,177.464v32.411"/>
	<text transform="matrix(1 0 0 1 255.0092 220.5904)" font-family="'HelveticaCE-Regular'" font-size="10">stránkování</text>
</g>
</svg>
